<?xml version="1.0" encoding="UTF-8"?>
<svg xmlns="http://www.w3.org/2000/svg" xmlns:xlink="http://www.w3.org/1999/xlink" width="7058pt" height="3458pt" viewBox="0 0 7058 3458" version="1.1">
<g id="surface1">
<path style=" stroke:none;fill-rule:evenodd;fill:rgb(17.999268%,18.798828%,57.299805%);fill-opacity:1;" d="M 0.328125 1 L 7057.671875 1 L 7057.671875 3457 L 0.328125 3457 L 0.328125 1 "/>
<path style="fill:none;stroke-width:5.6693;stroke-linecap:butt;stroke-linejoin:miter;stroke:rgb(13.699341%,12.199402%,12.5%);stroke-opacity:1;stroke-miterlimit:2.61313;" d="M 3.28125 34570 L 70576.71875 34570 L 70576.71875 10 L 3.28125 10 Z M 3.28125 34570 " transform="matrix(0.1,0,0,-0.1,0,3458)"/>
<path style=" stroke:none;fill-rule:nonzero;fill:rgb(100%,100%,100%);fill-opacity:1;" d="M 1655.941406 1694.269531 L 1793.730469 1366.96875 C 1840.429688 1389.171875 1959.191406 1723.289063 1959.191406 1723.289063 C 1900.269531 1769.71875 1655.941406 1694.269531 1655.941406 1694.269531 Z M 2511.320313 2080.238281 L 2044.410156 1110.601563 C 1927.03125 956.960938 1763.359375 952.171875 1763.359375 952.171875 L 1562.988281 952.171875 L 1398 1298.03125 C 1540.78125 1210.128906 1626.921875 1278.371094 1626.921875 1278.371094 L 1456.019531 1687.691406 C 1430.160156 1683.628906 1388.011719 1698.558594 1388.011719 1698.558594 C 1173.140625 1780.390625 1189.019531 1915.929688 1189.019531 1915.929688 C 1305.511719 1851.308594 1384.851563 1895.980469 1384.851563 1895.980469 L 1319.570313 2021.808594 C 1114.21875 2012.71875 960.535156 2175.230469 960.535156 2354.289063 C 960.535156 2531.085938 1052.558594 2534.511719 1052.558594 2534.511719 C 1029.449219 2486.890625 1039.871094 2257.988281 1247.050781 2257.988281 C 1456.019531 2257.988281 1557.109375 2458.308594 1557.109375 2458.308594 L 1814.578125 2220.78125 L 1776.058594 2175.230469 C 1701.238281 2234.160156 1667.238281 2186.109375 1667.238281 2186.109375 L 1504.5 2063.269531 L 1564.371094 1912.53125 C 1564.371094 1912.53125 1521.289063 1888.511719 1750.210938 1944.011719 C 1974.589844 1998.648438 2056.210938 1944.011719 2056.210938 1944.011719 L 2283.78125 2458.308594 L 2653.679688 2111.109375 L 2617.421875 2059.871094 C 2524.011719 2142.589844 2511.320313 2080.238281 2511.320313 2080.238281 "/>
<path style=" stroke:none;fill-rule:nonzero;fill:rgb(100%,100%,100%);fill-opacity:1;" d="M 2634.191406 1725.53125 C 2634.191406 1725.53125 2770.191406 1567.558594 2873.089844 1540.800781 C 2873.089844 1540.800781 3061.210938 1503.648438 3128.75 1680.210938 C 3128.75 1680.210938 3449.699219 1369.460938 3651.421875 1665.929688 L 3689.050781 1670.21875 C 3689.050781 1670.21875 3825.941406 1537.859375 3971.929688 1540.800781 C 3971.929688 1540.800781 4187.710938 1539.671875 4191.339844 1707.390625 L 4191.339844 2171.371094 C 4191.339844 2171.371094 4208.558594 2234.160156 4293.789063 2189.511719 L 4324.609375 2220.78125 L 4053.988281 2458.308594 L 3819.160156 2271.351563 C 3819.160156 2271.351563 3832.761719 2280.378906 3874 2202.679688 L 3874 1765.410156 C 3874 1765.410156 3798.320313 1643.039063 3651.421875 1809.191406 L 3651.421875 2189.070313 C 3651.421875 2189.070313 3671.828125 2244.140625 3750.25 2186.109375 L 3774.269531 2224.421875 L 3517.25 2458.308594 L 3272.460938 2261.578125 C 3272.460938 2261.578125 3324.140625 2215.800781 3334.121094 2182.050781 L 3334.121094 1802.609375 C 3334.121094 1802.609375 3279.261719 1646.441406 3112.449219 1776.101563 L 3112.449219 2174.789063 C 3112.449219 2174.789063 3135.550781 2240.960938 3204.480469 2192.910156 L 3231.660156 2231.019531 L 2971.460938 2458.308594 L 2719.398438 2247.328125 C 2719.398438 2247.328125 2774.261719 2215.800781 2794.648438 2161.621094 L 2794.648438 1786.28125 C 2794.648438 1786.28125 2780.140625 1670.21875 2670.890625 1762.699219 L 2634.191406 1725.53125 "/>
<path style=" stroke:none;fill-rule:nonzero;fill:rgb(100%,100%,100%);fill-opacity:1;" d="M 4358.621094 1729.179688 C 4358.621094 1729.179688 4481 1540.800781 4620.191406 1540.800781 C 4759.78125 1540.800781 4819.621094 1626.511719 4819.621094 1655.289063 L 4819.621094 2144.859375 C 4819.621094 2144.859375 4853.179688 2329.398438 5079.398438 2150.75 L 5079.398438 1788.789063 C 5079.398438 1788.789063 5058.53125 1708.53125 4993.261719 1776.101563 L 4952.910156 1732.550781 C 4952.910156 1732.550781 5068.5 1537.859375 5200.871094 1540.800781 C 5200.871094 1540.800781 5325.089844 1526.550781 5396.71875 1649.621094 L 5396.71875 2135.140625 C 5396.71875 2135.140625 5410.308594 2231.019531 5525.898438 2161.621094 L 5557.191406 2210.140625 L 5303.78125 2458.308594 L 5079.398438 2264.769531 C 5079.398438 2264.769531 4869.949219 2439.058594 4713.550781 2439.058594 C 4713.550781 2439.058594 4608.398438 2455.589844 4440.660156 2261.578125 C 4440.660156 2261.578125 4484.179688 2247.328125 4501.398438 2202.679688 L 4501.398438 1765.410156 C 4501.398438 1765.410156 4484.179688 1705.148438 4402.589844 1766.351563 L 4358.621094 1729.179688 "/>
<path style=" stroke:none;fill-rule:nonzero;fill:rgb(100%,100%,100%);fill-opacity:1;" d="M 5642.410156 2234.160156 L 5897.640625 2458.304688 L 6192.289063 2186.109375 L 6158.261719 2151.878906 C 6158.261719 2151.878906 6069.441406 2210.140625 6066.238281 2154.171875 L 6066.238281 1174.289063 C 6066.238281 1174.289063 6011.410156 1025.378906 5850.460938 1025.378906 C 5850.460938 1025.378906 5796.101563 1023.128906 5768.421875 1059.390625 C 5740.789063 1095.660156 5557.191406 1278.371094 5557.191406 1278.371094 L 5595.25 1321.621094 C 5595.25 1321.621094 5604.808594 1278.371094 5669.609375 1278.371094 C 5734.878906 1278.371094 5737.609375 1352.890625 5740.789063 1345.660156 L 5740.789063 2165.050781 C 5740.789063 2165.050781 5730.800781 2227.578125 5642.410156 2234.160156 "/>
<path style=" stroke:none;fill-rule:nonzero;fill:rgb(100%,100%,100%);fill-opacity:1;" d="M 5792.398438 2990.433594 L 5788.160156 2994.484375 C 5785.929688 2996.644531 5782.378906 2996.554688 5780.238281 2994.328125 L 5765.621094 2978.957031 C 5763.46875 2976.691406 5763.550781 2973.128906 5765.78125 2971.007813 L 5770 2966.984375 C 5772.25 2964.816406 5775.789063 2964.914063 5777.929688 2967.152344 L 5792.570313 2982.53125 C 5794.71875 2984.777344 5794.628906 2988.316406 5792.398438 2990.433594 Z M 5934.238281 2985.066406 L 5916.871094 2998.464844 C 5916.871094 2998.464844 5910.179688 3005.933594 5901.230469 2995.988281 L 5814.148438 2902.445313 C 5814.148438 2902.445313 5810.421875 2900.703125 5807.449219 2902.679688 L 5733.761719 2966.449219 C 5733.761719 2966.449219 5729.921875 2969.546875 5734.808594 2974.703125 L 5778.359375 3021.613281 C 5778.359375 3021.613281 5782.449219 3027.726563 5788.960938 3022.722656 L 5812.960938 3004.671875 L 5848.140625 3040.632813 C 5848.140625 3040.632813 5867.730469 3061.730469 5888.570313 3050.085938 L 5946.878906 3000.691406 L 5934.238281 2985.066406 "/>
<path style=" stroke:none;fill-rule:nonzero;fill:rgb(100%,100%,100%);fill-opacity:1;" d="M 5250.421875 2717.105469 L 5250.421875 2604.460938 L 5160.121094 2528.046875 L 5020.179688 2606.949219 L 5021.179688 2683.363281 C 5020.179688 2696.777344 5011.738281 2706.1875 5011.738281 2706.1875 L 5071.789063 2673.429688 C 5097.589844 2659.050781 5095.601563 2634.234375 5095.601563 2634.234375 L 5095.601563 2590.070313 C 5095.601563 2580.148438 5104.050781 2584.601563 5104.050781 2584.601563 L 5170.050781 2642.664063 C 5170.050781 2642.664063 5169.539063 2699.730469 5170.050781 2713.136719 C 5170.53125 2726.523438 5162.109375 2725.039063 5162.109375 2725.039063 L 5119.929688 2725.039063 L 5119.929688 2783.097656 L 5164.078125 2783.097656 C 5176 2783.59375 5171.519531 2796.003906 5171.519531 2796.003906 L 5171.519531 2924.039063 L 5097.101563 2861.503906 L 5097.101563 2831.714844 L 5017.199219 2766.710938 L 5005.78125 2780.617188 L 5016.699219 2795.011719 C 5023.148438 2800.972656 5021.671875 2807.921875 5021.671875 2807.921875 L 5021.671875 2899.699219 L 5137.789063 2994 L 5253.921875 2891.28125 L 5253.921875 2775.648438 L 5218.671875 2744.878906 L 5250.421875 2717.105469 "/>
<path style=" stroke:none;fill-rule:nonzero;fill:rgb(100%,100%,100%);fill-opacity:1;" d="M 5266.859375 2626.800781 L 5360.761719 2626.800781 L 5305.5 2660.035156 L 5312.949219 2675.921875 L 5320.898438 2671.441406 C 5329.828125 2667.976563 5329.328125 2677.910156 5329.328125 2677.910156 L 5329.328125 2713.136719 C 5328.339844 2727.039063 5321.390625 2724.054688 5321.390625 2724.054688 L 5271.769531 2724.054688 L 5271.769531 2783.097656 L 5318.898438 2783.097656 C 5331.320313 2783.097656 5329.328125 2794.507813 5329.328125 2794.507813 L 5329.328125 2878.375 C 5328.339844 2898.226563 5316.429688 2901.691406 5316.429688 2901.691406 L 5376.03125 2948.351563 L 5445.941406 2891.753906 L 5436.511719 2879.867188 L 5425.101563 2887.789063 C 5412.691406 2894.257813 5412.691406 2875.882813 5412.691406 2875.882813 L 5412.691406 2665.484375 L 5366.449219 2626.800781 L 5451.480469 2626.800781 L 5451.480469 2597.019531 L 5266.859375 2597.019531 L 5266.859375 2626.800781 "/>
<path style=" stroke:none;fill-rule:nonzero;fill:rgb(100%,100%,100%);fill-opacity:1;" d="M 5652.871094 2678.390625 L 5664.769531 2674.429688 C 5675.691406 2673.933594 5674.210938 2684.828125 5674.210938 2684.828125 L 5674.210938 2762.253906 L 5588.359375 2762.253906 L 5588.359375 2683.863281 C 5587.871094 2673.933594 5597.300781 2666.003906 5597.300781 2666.003906 C 5581.78125 2658.417969 5559.238281 2635.542969 5550.921875 2626.800781 L 5707.230469 2626.800781 C 5681.730469 2649.535156 5646.910156 2665.007813 5646.910156 2665.007813 Z M 5466.351563 2626.800781 L 5543.398438 2626.800781 C 5510.570313 2653.023438 5483.660156 2663.5 5483.660156 2663.5 L 5490.121094 2677.40625 L 5499.53125 2673.933594 C 5510.949219 2669.96875 5509.949219 2680.886719 5509.949219 2680.886719 L 5509.949219 2761.273438 L 5481.660156 2761.273438 C 5476.699219 2773.667969 5451.898438 2799 5451.898438 2799 L 5544.691406 2906.65625 L 5597.789063 2857.039063 C 5588.359375 2850.972656 5588.480469 2842.648438 5588.480469 2842.648438 L 5588.480469 2818.824219 L 5673.339844 2818.824219 L 5673.339844 2877.894531 C 5674.699219 2893.753906 5661.308594 2903.664063 5661.308594 2903.664063 L 5722.339844 2957.277344 L 5798.269531 2893.023438 L 5789.339844 2881.859375 L 5776.429688 2891.28125 C 5760.679688 2896.371094 5763.53125 2875.882813 5763.53125 2875.882813 L 5763.53125 2667.46875 C 5746.78125 2657.566406 5730.511719 2638 5722.011719 2626.800781 L 5816.191406 2626.800781 L 5816.191406 2597.019531 L 5466.351563 2597.019531 L 5466.351563 2626.800781 "/>
<path style=" stroke:none;fill-rule:nonzero;fill:rgb(100%,100%,100%);fill-opacity:1;" d="M 6192.289063 2626.800781 L 6192.289063 2597.019531 L 5830.03125 2597.019531 L 5830.03125 2626.800781 L 6034.980469 2626.800781 L 6034.980469 2685.703125 L 6005.578125 2705.433594 L 5932.988281 2646.628906 L 5822.820313 2708.796875 C 5833.25 2716.589844 5831.390625 2732.601563 5831.390625 2732.601563 L 5831.390625 2845.753906 C 5831.761719 2862.488281 5820.230469 2869.207031 5820.230469 2869.207031 L 5918.480469 2948.351563 L 5988.808594 2888.175781 L 5962.398438 2862.136719 L 5925.929688 2892.640625 C 5916.609375 2900.097656 5917.371094 2887.066406 5917.371094 2887.066406 L 5917.371094 2692.058594 C 5917.71875 2684.59375 5924.421875 2688.316406 5924.421875 2688.316406 C 5929.269531 2690.9375 5963.148438 2722.9375 5963.148438 2722.9375 L 5963.148438 2783.980469 L 6045.398438 2783.980469 L 6045.398438 2720.320313 C 6062.5 2705.433594 6075.539063 2700.222656 6075.539063 2700.222656 C 6083.351563 2697.257813 6084.46875 2705.074219 6084.46875 2705.074219 L 6084.46875 2893.394531 L 6042.421875 2859.160156 L 6014.128906 2887.066406 L 6084.46875 2948.351563 L 6179 2867.699219 C 6174.148438 2862.136719 6173.78125 2851.703125 6173.78125 2851.703125 L 6173.78125 2712.511719 C 6132.839844 2679.386719 6117.960938 2660.765625 6117.960938 2660.765625 L 6117.960938 2626.800781 L 6192.289063 2626.800781 "/>
</g>
</svg>
