<?xml version="1.0" encoding="UTF-8"?>
<svg xmlns="http://www.w3.org/2000/svg" xmlns:xlink="http://www.w3.org/1999/xlink" width="358.45pt" height="397.55pt" viewBox="0 0 358.45 397.55" version="1.1">
<defs>
<clipPath id="clip1">
  <path d="M 52 363 L 256 363 L 256 397.550781 L 52 397.550781 Z M 52 363 "/>
</clipPath>
<clipPath id="clip2">
  <path d="M 325 132 L 358.449219 132 L 358.449219 142 L 325 142 Z M 325 132 "/>
</clipPath>
<clipPath id="clip3">
  <path d="M 325 125 L 358.449219 125 L 358.449219 134 L 325 134 Z M 325 125 "/>
</clipPath>
</defs>
<g id="surface1">
<path style=" stroke:none;fill-rule:nonzero;fill:rgb(0%,39.599609%,17.999268%);fill-opacity:1;" d="M 65.542969 358.914063 C 65.542969 358.914063 62.117188 366.71875 56.503906 366.71875 C 50.890625 366.71875 50.320313 358.152344 53.460938 351.871094 C 56.601563 345.59375 68.304688 337.503906 66.304688 348.066406 C 65.832031 350.539063 65.070313 353.207031 67.542969 350.730469 C 70.019531 348.257813 73.253906 339.503906 64.878906 339.503906 C 56.503906 339.503906 46.511719 353.300781 46.511719 362.433594 C 46.511719 371.570313 58.789063 373.664063 64.023438 365.859375 C 69.257813 358.058594 67.636719 356.441406 65.542969 358.914063 "/>
<path style=" stroke:none;fill-rule:nonzero;fill:rgb(0%,39.599609%,17.999268%);fill-opacity:1;" d="M 86.574219 360.054688 C 86.097656 361.292969 83.054688 364.816406 79.722656 364.816406 C 74.679688 364.816406 75.632813 358.722656 75.632813 358.722656 C 86.003906 360.914063 92.855469 345.972656 84.863281 345.972656 C 76.867188 345.972656 71.445313 357.390625 71.445313 360.816406 C 71.445313 364.242188 73.445313 367.667969 78.203125 367.667969 C 82.960938 367.667969 86.574219 363.386719 88.289063 360.816406 C 90 358.246094 87.050781 358.820313 86.574219 360.054688 M 82.578125 348.921875 C 86.667969 348.921875 84.289063 357.488281 76.296875 356.15625 C 76.296875 356.15625 78.484375 348.921875 82.578125 348.921875 "/>
<path style=" stroke:none;fill-rule:nonzero;fill:rgb(0%,39.599609%,17.999268%);fill-opacity:1;" d="M 115.824219 356.429688 C 115.351563 357.667969 112.304688 361.191406 108.972656 361.191406 C 103.929688 361.191406 104.882813 355.097656 104.882813 355.097656 C 115.253906 357.289063 122.105469 342.347656 114.113281 342.347656 C 106.117188 342.347656 100.695313 353.765625 100.695313 357.191406 C 100.695313 360.617188 102.691406 364.042969 107.449219 364.042969 C 112.210938 364.042969 115.824219 359.761719 117.539063 357.191406 C 119.25 354.621094 116.300781 355.195313 115.824219 356.429688 M 111.828125 345.296875 C 115.921875 345.296875 113.539063 353.863281 105.546875 352.53125 C 105.546875 352.53125 107.734375 345.296875 111.828125 345.296875 "/>
<path style=" stroke:none;fill-rule:nonzero;fill:rgb(0%,39.599609%,17.999268%);fill-opacity:1;" d="M 284.242188 349.230469 C 283.578125 350.378906 280.023438 353.382813 276.734375 352.863281 C 271.753906 352.078125 273.640625 346.210938 273.640625 346.210938 C 283.546875 349.988281 292.640625 336.292969 284.742188 335.050781 C 276.847656 333.804688 269.710938 344.242188 269.179688 347.625 C 268.644531 351.007813 270.085938 354.703125 274.785156 355.445313 C 279.484375 356.183594 283.726563 352.519531 285.816406 350.246094 C 287.90625 347.976563 284.90625 348.082031 284.242188 349.230469 M 282.027344 337.609375 C 286.070313 338.246094 282.386719 346.335938 274.699219 343.777344 C 274.699219 343.777344 277.984375 336.972656 282.027344 337.609375 "/>
<path style=" stroke:none;fill-rule:nonzero;fill:rgb(0%,39.599609%,17.999268%);fill-opacity:1;" d="M 208.574219 348.179688 C 208.101563 349.417969 205.054688 352.941406 201.722656 352.941406 C 196.679688 352.941406 197.632813 346.847656 197.632813 346.847656 C 208.003906 349.039063 214.855469 334.097656 206.863281 334.097656 C 198.867188 334.097656 193.445313 345.515625 193.445313 348.941406 C 193.445313 352.367188 195.441406 355.792969 200.199219 355.792969 C 204.960938 355.792969 208.574219 351.511719 210.289063 348.941406 C 212 346.371094 209.050781 346.945313 208.574219 348.179688 M 204.578125 337.046875 C 208.671875 337.046875 206.289063 345.613281 198.296875 344.28125 C 198.296875 344.28125 200.484375 337.046875 204.578125 337.046875 "/>
<path style=" stroke:none;fill-rule:nonzero;fill:rgb(0%,39.599609%,17.999268%);fill-opacity:1;" d="M 97.898438 337.882813 C 97.898438 337.882813 92.476563 354.917969 91.332031 359.675781 C 90.191406 364.433594 89.808594 367.191406 92.761719 363.957031 C 95.710938 360.722656 99.136719 345.78125 100.65625 341.40625 C 102.179688 337.027344 103.511719 333.125 97.898438 337.882813 "/>
<path style=" stroke:none;fill-rule:nonzero;fill:rgb(0%,39.599609%,17.999268%);fill-opacity:1;" d="M 128 343.898438 C 132.625 329.648438 132.125 331.273438 129.25 333.398438 C 126.375 335.523438 125.625 340.398438 124 344.398438 C 124 344.398438 116.75 361.523438 126.5 361.523438 C 136.25 361.523438 140.375 349.648438 140.375 346.023438 C 140.375 342.398438 137 336.148438 128 343.898438 M 134.523438 353.207031 C 132.546875 356.964844 129.238281 359.113281 127.128906 358.003906 C 125.023438 356.898438 124.917969 352.953125 126.894531 349.191406 C 128.871094 345.433594 132.183594 343.285156 134.289063 344.394531 C 136.394531 345.5 136.5 349.445313 134.523438 353.207031 "/>
<path style=" stroke:none;fill-rule:nonzero;fill:rgb(0%,39.599609%,17.999268%);fill-opacity:1;" d="M 151.125 341.273438 C 151.125 341.273438 154.875 338.023438 157.375 338.023438 C 159.875 338.023438 161 338.398438 159.125 340.023438 C 157.25 341.648438 156.5 342.773438 155.875 341.773438 C 155.25 340.773438 149.375 343.648438 148 348.023438 C 146.625 352.398438 145.125 359.398438 142.125 359.398438 C 139.125 359.398438 142 355.773438 143.25 350.398438 C 144.5 345.023438 147.875 338.273438 149.25 338.273438 C 150.625 338.273438 151.875 337.898438 151.125 341.273438 "/>
<path style=" stroke:none;fill-rule:nonzero;fill:rgb(0%,39.599609%,17.999268%);fill-opacity:1;" d="M 171 337.148438 C 164.875 337.148438 158.5 341.773438 160.5 342.273438 C 162.5 342.773438 174.25 335.523438 171 344.648438 C 171 344.648438 155.375 345.273438 155.375 353.773438 C 155.375 359.523438 161.5 360.398438 167.75 355.398438 C 168 358.023438 169.375 360.023438 171.5 354.398438 C 173.625 348.773438 179.5 337.148438 171 337.148438 M 169.25 349.773438 C 169.25 349.773438 167 355.398438 162.875 355.398438 C 158.75 355.398438 158.5 350.898438 161.75 349.148438 C 165 347.398438 171 347.023438 169.25 349.773438 "/>
<path style=" stroke:none;fill-rule:nonzero;fill:rgb(0%,39.599609%,17.999268%);fill-opacity:1;" d="M 186.777344 338.925781 C 192.855469 337.894531 194.125 335.898438 194.125 335.898438 C 191.753906 335.878906 189.726563 335.96875 187.980469 336.136719 C 188.152344 335.746094 188.25 335.523438 188.25 335.523438 C 188.25 335.523438 189.125 333.648438 190 332.148438 C 190.875 330.648438 189.125 326.398438 187.25 330.523438 C 186.585938 331.984375 185.542969 334.222656 184.421875 336.644531 C 179.03125 337.707031 177.875 339.523438 177.875 339.523438 C 179.871094 339.539063 181.617188 339.476563 183.164063 339.359375 C 181.503906 342.96875 179.894531 346.535156 179.25 348.273438 C 178 351.648438 178.125 356.523438 182.375 356.523438 C 189.625 356.523438 192.75 348.398438 188.625 351.898438 C 184.5 355.398438 181.125 353.023438 183.25 347.523438 C 184.398438 344.550781 185.761719 341.296875 186.777344 338.925781 "/>
<path style=" stroke:none;fill-rule:nonzero;fill:rgb(0%,39.599609%,17.999268%);fill-opacity:1;" d="M 253.226563 335.324219 C 253.226563 335.324219 248.992188 344.46875 247.414063 348.835938 C 245.835938 353.210938 245.222656 355.769531 248.605469 352.984375 C 251.984375 350.203125 253.929688 342.847656 255.882813 338.867188 C 257.835938 334.890625 259.550781 331.339844 253.226563 335.324219 M 259.777344 323.757813 C 258.984375 323.289063 257.546875 324.261719 256.5625 325.925781 C 255.585938 327.59375 255.433594 329.324219 256.226563 329.789063 C 257.019531 330.257813 258.457031 329.285156 259.4375 327.617188 C 260.417969 325.953125 260.570313 324.222656 259.777344 323.757813 "/>
<path style=" stroke:none;fill-rule:nonzero;fill:rgb(0%,39.599609%,17.999268%);fill-opacity:1;" d="M 239.835938 328.273438 C 239.835938 328.273438 235.167969 335.941406 232.835938 342.105469 C 230.5 348.273438 228.835938 352.273438 235.835938 350.441406 C 242.835938 348.605469 247 347.773438 243 350.605469 C 239 353.441406 235.503906 354.105469 231.835938 353.941406 C 228.167969 353.773438 223.167969 352.941406 226.835938 345.105469 C 230.5 337.273438 234.167969 326.105469 238.167969 325.941406 C 242.167969 325.773438 240.667969 326.941406 239.835938 328.273438 "/>
<path style=" stroke:none;fill-rule:nonzero;fill:rgb(0%,39.599609%,17.999268%);fill-opacity:1;" d="M 273.78125 325.996094 C 270.222656 327.828125 267.59375 329.488281 264.257813 335.8125 C 260.058594 336.148438 258.863281 337.574219 258.863281 337.574219 C 260.421875 337.871094 261.816406 338.070313 263.074219 338.195313 C 262.996094 338.363281 262.917969 338.519531 262.839844 338.691406 C 262.839844 338.691406 259.773438 344.820313 258.023438 348.867188 C 256.273438 352.917969 258.242188 357.953125 260.761719 352.261719 C 262.179688 349.054688 264.914063 343.210938 267.40625 338.347656 C 272.238281 338.136719 273.5625 336.53125 273.5625 336.53125 C 271.726563 336.183594 270.132813 335.976563 268.707031 335.859375 C 270.113281 333.234375 271.332031 331.183594 272.03125 330.484375 C 274.109375 328.40625 276.738281 327.640625 276.847656 329.828125 C 276.957031 332.019531 279.035156 331.140625 280.457031 329.28125 C 281.882813 327.421875 277.832031 323.917969 273.78125 325.996094 "/>
<path style=" stroke:none;fill-rule:nonzero;fill:rgb(0%,39.599609%,17.999268%);fill-opacity:1;" d="M 305.285156 330.558594 C 305.285156 330.558594 299.375 339.835938 297.171875 344.273438 C 294.964844 348.707031 294.105469 351.304688 298.828125 348.480469 C 303.550781 345.65625 306.269531 338.195313 308.996094 334.15625 C 311.726563 330.117188 314.121094 326.519531 305.285156 330.558594 M 296.367188 352.777344 C 295.128906 352.265625 292.886719 353.328125 291.355469 355.144531 C 289.824219 356.964844 289.585938 358.851563 290.824219 359.363281 C 292.0625 359.875 294.308594 358.8125 295.839844 356.992188 C 297.367188 355.175781 297.605469 353.285156 296.367188 352.777344 "/>
<g clip-path="url(#clip1)" clip-rule="nonzero">
<path style=" stroke:none;fill-rule:nonzero;fill:rgb(55.299377%,77.598572%,24.699402%);fill-opacity:1;" d="M 255.5 364.773438 C 255.5 364.773438 137.75 357.273438 57 388.773438 C 57 388.773438 50.777344 391.421875 52.296875 395.042969 C 53.816406 398.664063 58.226563 397.34375 58.226563 397.34375 C 137.535156 362.375 255.5 364.773438 255.5 364.773438 "/>
</g>
<path style=" stroke:none;fill-rule:nonzero;fill:rgb(0%,39.599609%,17.999268%);fill-opacity:1;" d="M 125.0625 305.074219 C 121.949219 303.578125 124.378906 296.863281 129.75 287.269531 C 134.125 279.4375 138.480469 275.492188 142.597656 275.492188 C 143.105469 275.492188 143.683594 275.609375 144.398438 276.402344 C 145.058594 277.132813 145.359375 277.835938 145.359375 278.613281 C 145.359375 280.765625 144.199219 285.144531 138.644531 293.71875 C 133.761719 301.253906 127.605469 306.292969 125.0625 305.074219 M 190.839844 296.640625 C 184.914063 305.351563 182.964844 305.871094 180.867188 306.03125 C 179.667969 306.132813 178.785156 305.757813 178.109375 305.164063 C 177.703125 304.820313 177.269531 304.144531 177.332031 303.210938 C 177.332031 303.210938 177.460938 302.078125 177.574219 301.625 C 177.699219 301.175781 179.328125 295.46875 182.03125 289.425781 C 184.734375 283.367188 185.816406 281.84375 187.894531 279.421875 C 191.382813 275.355469 195.222656 273.65625 197.140625 274.710938 C 200.914063 276.785156 195.371094 289.960938 190.839844 296.640625 M 211.417969 265.722656 L 211.414063 265.71875 C 209.019531 263.128906 205.425781 262.835938 202.019531 262.835938 C 198.425781 262.835938 195.070313 263.355469 190.492188 266.425781 C 196.222656 252.300781 205.277344 232.996094 205.367188 232.789063 L 205.816406 231.851563 L 204.769531 231.953125 C 204.714844 231.953125 199.242188 232.511719 188.210938 235.085938 L 187.898438 235.164063 L 187.089844 237.355469 L 164.085938 296.703125 C 164.085938 296.703125 162.398438 300.296875 157.375 303.183594 C 154.746094 304.6875 153.269531 304.875 152.394531 305 C 151.550781 305.15625 151.320313 304.355469 151.425781 304.082031 C 152.089844 302.265625 153.957031 297.21875 153.957031 297.21875 C 159.53125 281.761719 162.996094 272.449219 164.542969 268.753906 L 166.5625 263.921875 L 151.378906 263.921875 C 151.378906 263.921875 151.113281 264.40625 151.015625 264.578125 C 149.265625 263.539063 147.214844 262.9375 144.8125 262.9375 C 141.441406 262.9375 137.105469 264.839844 131.164063 268.933594 C 125.058594 273.179688 119.808594 278.117188 115.53125 283.625 C 110.203125 290.597656 107.503906 297.570313 107.503906 304.339844 C 107.503906 307.457031 108.234375 310.167969 109.683594 312.40625 C 110.878906 314.28125 113.246094 316.523438 117.703125 316.523438 C 123.484375 316.523438 129.070313 314.390625 134.339844 310.3125 C 134.746094 311.710938 135.617188 313 137.277344 314.160156 C 139.441406 315.703125 142.484375 316.449219 143.710938 316.507813 C 144.9375 316.566406 149.457031 316.351563 153.464844 314.308594 C 156.863281 312.578125 158.96875 310.34375 160.867188 307.449219 C 161.851563 309.8125 163.144531 311.816406 164.757813 313.394531 C 166.855469 315.46875 169.496094 316.523438 172.605469 316.523438 C 181.300781 316.523438 190.429688 312.277344 199.730469 303.921875 C 209.769531 294.921875 214.871094 285.15625 214.871094 274.894531 C 214.871094 271.316406 213.707031 268.234375 211.417969 265.722656 "/>
<path style=" stroke:none;fill-rule:nonzero;fill:rgb(0%,39.599609%,17.999268%);fill-opacity:1;" d="M 312.652344 267.195313 C 310.570313 265.003906 307.632813 263.890625 303.917969 263.890625 C 301.117188 263.890625 298.273438 265.140625 295.320313 267.222656 C 295.65625 266.277344 296.285156 264.539063 296.285156 264.539063 L 280.460938 264.523438 L 268.265625 300.523438 C 266.558594 302.308594 264.4375 303.921875 263.515625 304.46875 C 261.53125 305.609375 258.714844 306.660156 256.332031 305.707031 C 256.332031 305.707031 255.183594 305.136719 255.4375 304.449219 C 256.222656 302.171875 259.921875 291.402344 259.921875 291.402344 C 263.175781 281.878906 266.050781 273.964844 268.246094 268.507813 L 270.160156 263.730469 L 254.144531 263.730469 L 253.273438 265.988281 C 250.449219 273.410156 248.097656 279.007813 246.09375 283.121094 C 242.949219 289.664063 239.800781 294.71875 236.742188 298.144531 C 233.929688 301.242188 231.414063 303.734375 228.222656 303.722656 C 227.96875 303.722656 227.683594 303.722656 227.445313 303.667969 C 227.003906 303.566406 226.65625 303.019531 226.820313 302.667969 C 229.230469 296.375 242.15625 263.730469 242.15625 263.730469 L 225.792969 263.730469 C 225.792969 263.730469 210.148438 303.042969 209.886719 306.527344 C 209.675781 309.394531 211.175781 311.804688 213.1875 313.707031 C 215.179688 315.578125 217.621094 316.523438 220.4375 316.523438 C 225.636719 316.523438 231.539063 313.496094 238.355469 307.570313 C 238.347656 307.59375 238.296875 307.714844 238.296875 307.714844 C 238.296875 307.726563 237.984375 309.308594 237.984375 309.308594 C 237.984375 310.816406 238.835938 312.980469 242.863281 314.789063 C 245.46875 315.9375 247.925781 316.523438 250.144531 316.523438 C 254.007813 316.523438 257.210938 315.972656 261.285156 313.226563 C 263.039063 312.050781 264.253906 310.851563 265.1875 309.648438 L 262.855469 316.523438 L 278.632813 316.523438 L 279.386719 314.027344 C 281.3125 307.601563 283.222656 302.03125 285.070313 297.480469 C 287.664063 290.9375 290.28125 285.65625 292.859375 281.769531 C 295.824219 277.34375 297.449219 276.707031 298.875 276.144531 C 298.875 276.144531 299.949219 275.625 301.992188 275.421875 C 303.714844 275.25 305.445313 276.5625 305.941406 277.585938 C 306.488281 278.695313 305.796875 280.59375 305.160156 282.15625 C 304.585938 283.570313 304.179688 284.585938 304.625 285.246094 C 304.761719 285.460938 305.050781 285.703125 305.59375 285.703125 C 308.71875 285.703125 311.34375 284.542969 313.179688 282.363281 C 314.875 280.320313 315.734375 277.878906 315.734375 275.105469 C 315.734375 271.980469 314.695313 269.324219 312.652344 267.195313 "/>
<path style=" stroke:none;fill-rule:nonzero;fill:rgb(0%,39.599609%,17.999268%);fill-opacity:1;" d="M 84.199219 229.988281 L 84.222656 230.007813 C 84.070313 229.910156 68.730469 220.785156 53.914063 219.980469 C 36.347656 219.023438 5.234375 226.761719 0 261.785156 L 1.171875 262.019531 C 5.296875 246.429688 20.164063 231.664063 36.511719 226.917969 C 46.398438 224.0625 57.472656 225.164063 67.6875 230.046875 C 79.929688 236.148438 89.855469 250.511719 91.285156 264.195313 C 92.113281 272.148438 90.542969 283.65625 78.335938 293.277344 C 68.152344 301.453125 50.578125 304.597656 44.152344 299.402344 C 41.152344 296.972656 41.984375 293.136719 43.804688 287.601563 L 63.902344 236.96875 L 63.710938 236.703125 C 63.324219 236.171875 54.152344 223.636719 45.386719 227.660156 C 42.574219 228.953125 23.828125 290.40625 18.144531 309.210938 L 17.984375 309.738281 L 18.503906 309.929688 C 45.371094 319.761719 68.742188 320.128906 87.976563 311.003906 C 102.371094 305.074219 112.609375 290.328125 113.425781 274.324219 C 114.324219 256.566406 103.671875 240.414063 84.199219 229.988281 "/>
<path style=" stroke:none;fill-rule:nonzero;fill:rgb(0%,39.599609%,17.999268%);fill-opacity:1;" d="M 39.582031 115.871094 C 38.699219 114.042969 34.792969 107.25 28.253906 105.414063 C 21.570313 103.542969 15.453125 106.210938 12.511719 108.332031 L 39.582031 115.871094 "/>
<path style=" stroke:none;fill-rule:nonzero;fill:rgb(55.299377%,77.598572%,24.699402%);fill-opacity:1;" d="M 24.828125 118.875 C 30.925781 120.609375 37.382813 117.324219 39.582031 115.871094 L 12.511719 108.332031 C 14.457031 111.570313 17.214844 116.707031 24.828125 118.875 "/>
<path style=" stroke:none;fill-rule:nonzero;fill:rgb(0%,39.599609%,17.999268%);fill-opacity:1;" d="M 44.765625 101.898438 C 45.074219 99.460938 45.234375 91.949219 40.824219 86.984375 C 36.128906 81.699219 29.769531 80.65625 26.140625 80.960938 L 44.765625 101.898438 "/>
<path style=" stroke:none;fill-rule:nonzero;fill:rgb(55.299377%,77.598572%,24.699402%);fill-opacity:1;" d="M 30.796875 96.558594 C 35.105469 101.175781 42.121094 102.007813 44.765625 101.898438 L 26.140625 80.960938 C 26.105469 84.726563 25.421875 90.804688 30.796875 96.558594 "/>
<path style=" stroke:none;fill-rule:nonzero;fill:rgb(55.299377%,77.598572%,24.699402%);fill-opacity:1;" d="M 64.910156 170.820313 C 62.101563 169.796875 51.648438 167.914063 44.988281 172.546875 C 38.140625 177.300781 36.0625 185.273438 35.625 189.507813 L 64.910156 170.820313 "/>
<path style=" stroke:none;fill-rule:nonzero;fill:rgb(0%,39.599609%,17.999268%);fill-opacity:1;" d="M 55.515625 187.601563 C 62.460938 183.136719 64.769531 174.242188 64.910156 170.820313 L 35.625 189.507813 C 40.820313 190.996094 48.804688 191.914063 55.515625 187.601563 "/>
<path style=" stroke:none;fill-rule:nonzero;fill:rgb(55.299377%,77.598572%,24.699402%);fill-opacity:1;" d="M 63.210938 161.332031 C 61.480469 158.644531 52.3125 149.058594 42.167969 148.179688 C 32.378906 147.347656 23.621094 151.5 19.789063 154.671875 L 63.210938 161.332031 "/>
<path style=" stroke:none;fill-rule:nonzero;fill:rgb(0%,39.599609%,17.999268%);fill-opacity:1;" d="M 39.746094 167.578125 C 49.734375 169.359375 59.78125 164.105469 63.210938 161.332031 L 19.789063 154.671875 C 24.136719 160.023438 30.269531 165.882813 39.746094 167.578125 "/>
<path style=" stroke:none;fill-rule:nonzero;fill:rgb(55.299377%,77.598572%,24.699402%);fill-opacity:1;" d="M 137.941406 78.035156 C 136.804688 75.386719 131.246094 65.898438 122.347656 62.554688 C 112.582031 58.875 103.386719 61.515625 99.179688 63.910156 L 137.941406 78.035156 "/>
<path style=" stroke:none;fill-rule:nonzero;fill:rgb(0%,39.599609%,17.999268%);fill-opacity:1;" d="M 115.023438 79.4375 C 123.808594 82.984375 134.082031 79.945313 137.941406 78.035156 L 99.179688 63.910156 C 102.203125 69.570313 106.691406 76.070313 115.023438 79.4375 "/>
<path style=" stroke:none;fill-rule:nonzero;fill:rgb(55.299377%,77.598572%,24.699402%);fill-opacity:1;" d="M 87.203125 184.503906 C 87.410156 181.410156 87.15625 174.585938 82.683594 169.492188 C 77.863281 164.003906 71.414063 162.917969 67.972656 162.71875 L 87.203125 184.503906 "/>
<path style=" stroke:none;fill-rule:nonzero;fill:rgb(0%,39.599609%,17.999268%);fill-opacity:1;" d="M 72.832031 178.101563 C 77.296875 183.214844 84.367188 184.777344 87.203125 184.503906 L 67.972656 162.71875 C 67.652344 166.476563 68.511719 173.164063 72.832031 178.101563 "/>
<path style=" stroke:none;fill-rule:nonzero;fill:rgb(55.299377%,77.598572%,24.699402%);fill-opacity:1;" d="M 89.460938 157.433594 C 88.515625 154.996094 85.210938 148.398438 78.957031 145.746094 C 72.210938 142.875 65.96875 144.496094 62.769531 145.757813 L 89.460938 157.433594 "/>
<path style=" stroke:none;fill-rule:nonzero;fill:rgb(0%,39.599609%,17.999268%);fill-opacity:1;" d="M 73.019531 157.3125 C 79.78125 160.636719 87.003906 158.871094 89.460938 157.433594 L 62.769531 145.757813 C 64.238281 149.230469 67.132813 154.410156 73.019531 157.3125 "/>
<path style=" stroke:none;fill-rule:nonzero;fill:rgb(0%,39.599609%,17.999268%);fill-opacity:1;" d="M 62.101563 133.917969 C 60.488281 131.898438 55.171875 126.183594 47.898438 125.65625 C 40.101563 125.082031 34.617188 129.640625 32.035156 132.160156 L 62.101563 133.917969 "/>
<path style=" stroke:none;fill-rule:nonzero;fill:rgb(55.299377%,77.598572%,24.699402%);fill-opacity:1;" d="M 47.175781 140.496094 C 54.066406 140.875 60.265625 135.796875 62.101563 133.917969 L 32.039063 132.160156 C 34.628906 134.914063 39.277344 140.058594 47.175781 140.496094 "/>
<path style=" stroke:none;fill-rule:nonzero;fill:rgb(0%,39.599609%,17.999268%);fill-opacity:1;" d="M 156.433594 47.589844 C 157.980469 44.984375 162.015625 36.921875 159.511719 28.871094 C 156.816406 20.234375 149.519531 16.316406 145.628906 14.625 L 156.433594 47.589844 "/>
<path style=" stroke:none;fill-rule:nonzero;fill:rgb(55.299377%,77.598572%,24.699402%);fill-opacity:1;" d="M 143.082031 34.449219 C 145.597656 42.019531 153.570313 46.414063 156.433594 47.59375 L 145.628906 14.621094 C 143.683594 18.597656 140.199219 25.765625 143.082031 34.449219 "/>
<path style=" stroke:none;fill-rule:nonzero;fill:rgb(55.299377%,77.598572%,24.699402%);fill-opacity:1;" d="M 187.253906 32.1875 C 189.015625 29.898438 193.632813 22.714844 192.128906 14.914063 C 190.523438 6.546875 184.152344 1.972656 180.652344 -0.00390625 L 187.253906 32.1875 "/>
<path style=" stroke:none;fill-rule:nonzero;fill:rgb(0%,39.599609%,17.999268%);fill-opacity:1;" d="M 175.996094 18.210938 C 177.839844 26.390625 185.246094 30.796875 187.253906 32.1875 L 180.652344 -0.00390625 C 178.304688 3.210938 174.121094 9.882813 175.996094 18.210938 "/>
<path style=" stroke:none;fill-rule:nonzero;fill:rgb(55.299377%,77.598572%,24.699402%);fill-opacity:1;" d="M 190.257813 70.6875 C 192.5 68.929688 198.453125 62.132813 198.082031 54.546875 C 197.734375 47.507813 191.625 41.359375 188.269531 39.0625 L 190.257813 70.6875 "/>
<path style=" stroke:none;fill-rule:nonzero;fill:rgb(0%,39.599609%,17.999268%);fill-opacity:1;" d="M 180.847656 55.753906 C 181.574219 63.738281 188.371094 69.128906 190.257813 70.6875 L 188.269531 39.0625 C 185.363281 41.835938 180.101563 47.617188 180.847656 55.753906 "/>
<path style=" stroke:none;fill-rule:nonzero;fill:rgb(55.299377%,77.598572%,24.699402%);fill-opacity:1;" d="M 201.285156 90.6875 C 203.816406 89.558594 210.839844 85.457031 212.558594 77.269531 C 213.972656 70.515625 209.828125 63.210938 207.28125 60.230469 L 201.285156 90.6875 "/>
<path style=" stroke:none;fill-rule:nonzero;fill:rgb(0%,39.599609%,17.999268%);fill-opacity:1;" d="M 196.257813 74.261719 C 195.003906 81.496094 199.925781 88.753906 201.285156 90.6875 L 207.28125 60.230469 C 203.898438 62.15625 197.625 66.375 196.257813 74.261719 "/>
<path style=" stroke:none;fill-rule:nonzero;fill:rgb(55.299377%,77.598572%,24.699402%);fill-opacity:1;" d="M 231.050781 129.304688 C 233.886719 129.617188 242.296875 129.566406 248.0625 123.214844 C 252.8125 117.980469 252.949219 109.316406 252.214844 105.355469 L 231.050781 129.304688 "/>
<path style=" stroke:none;fill-rule:nonzero;fill:rgb(0%,39.599609%,17.999268%);fill-opacity:1;" d="M 235.042969 112.101563 C 230.265625 117.917969 230.824219 126.890625 231.050781 129.304688 L 252.214844 105.355469 C 248.785156 105.054688 240.636719 105.289063 235.042969 112.101563 "/>
<path style=" stroke:none;fill-rule:nonzero;fill:rgb(55.299377%,77.598572%,24.699402%);fill-opacity:1;" d="M 290.359375 111.925781 C 293.269531 112.132813 301.699219 111.558594 307.929688 105.347656 C 313.113281 100.164063 313.710938 91.21875 313.265625 87.226563 L 290.359375 111.925781 "/>
<path style=" stroke:none;fill-rule:nonzero;fill:rgb(0%,39.599609%,17.999268%);fill-opacity:1;" d="M 295.242188 94.234375 C 289.820313 100.277344 290.183594 109.421875 290.359375 111.925781 L 313.265625 87.226563 C 309.722656 86.839844 300.648438 88.214844 295.242188 94.234375 "/>
<path style=" stroke:none;fill-rule:nonzero;fill:rgb(55.299377%,77.598572%,24.699402%);fill-opacity:1;" d="M 239.703125 81.386719 C 242.347656 80.773438 250.320313 77.84375 253.652344 71.140625 C 256.816406 64.777344 255.234375 57.058594 253.589844 53.5625 L 239.703125 81.386719 "/>
<path style=" stroke:none;fill-rule:nonzero;fill:rgb(0%,39.599609%,17.999268%);fill-opacity:1;" d="M 239.425781 64.445313 C 236.125 71.28125 238.910156 79.199219 239.703125 81.386719 L 253.589844 53.5625 C 249.859375 54.539063 242.871094 57.324219 239.425781 64.445313 "/>
<path style=" stroke:none;fill-rule:nonzero;fill:rgb(55.299377%,77.598572%,24.699402%);fill-opacity:1;" d="M 232.921875 51.660156 C 235.636719 51.324219 244.007813 49.246094 248.160156 42.839844 C 252.097656 36.761719 251.253906 28.917969 250.300781 25.085938 L 232.921875 51.660156 "/>
<path style=" stroke:none;fill-rule:nonzero;fill:rgb(0%,39.599609%,17.999268%);fill-opacity:1;" d="M 234.722656 34.4375 C 230.582031 40.980469 232.394531 49.375 232.921875 51.660156 L 250.300781 25.085938 C 246.460938 25.683594 239.03125 27.621094 234.722656 34.4375 "/>
<path style=" stroke:none;fill-rule:nonzero;fill:rgb(55.299377%,77.598572%,24.699402%);fill-opacity:1;" d="M 262.363281 65.683594 C 264.636719 66.109375 271.898438 66.589844 276.832031 62.503906 C 281.507813 58.628906 282.765625 52.101563 282.945313 48.78125 L 262.363281 65.683594 "/>
<path style=" stroke:none;fill-rule:nonzero;fill:rgb(0%,39.599609%,17.999268%);fill-opacity:1;" d="M 268.074219 52.296875 C 263.125 56.492188 262.507813 63.707031 262.363281 65.683594 L 282.945313 48.78125 C 279.703125 48.265625 273.242188 47.921875 268.074219 52.296875 "/>
<path style=" stroke:none;fill-rule:nonzero;fill:rgb(55.299377%,77.598572%,24.699402%);fill-opacity:1;" d="M 289.574219 83.945313 C 291.945313 83.421875 299.273438 81.539063 302.628906 74.882813 C 305.90625 68.378906 304.285156 62.203125 303.160156 58.882813 L 289.574219 83.945313 "/>
<path style=" stroke:none;fill-rule:nonzero;fill:rgb(0%,39.599609%,17.999268%);fill-opacity:1;" d="M 289.871094 68.386719 C 286.683594 74.539063 288.726563 81.425781 289.574219 83.945313 L 303.160156 58.882813 C 299.8125 59.71875 293.191406 61.980469 289.871094 68.386719 "/>
<path style=" stroke:none;fill-rule:nonzero;fill:rgb(55.299377%,77.598572%,24.699402%);fill-opacity:1;" d="M 269.8125 118.511719 C 272.25 117.9375 279.761719 115.882813 283.105469 108.972656 C 286.367188 102.222656 284.601563 95.902344 283.390625 92.5 L 269.8125 118.511719 "/>
<path style=" stroke:none;fill-rule:nonzero;fill:rgb(0%,39.599609%,17.999268%);fill-opacity:1;" d="M 269.867188 102.5 C 266.6875 108.882813 268.90625 115.933594 269.8125 118.511719 L 283.390625 92.5 C 279.949219 93.410156 273.175781 95.847656 269.867188 102.5 "/>
<path style=" stroke:none;fill-rule:nonzero;fill:rgb(55.299377%,77.598572%,24.699402%);fill-opacity:1;" d="M 313.339844 105.875 C 315.441406 106.585938 322.039063 108.53125 327.859375 104.914063 C 333.542969 101.378906 335.25 95.824219 335.984375 92.710938 L 313.339844 105.875 "/>
<path style=" stroke:none;fill-rule:nonzero;fill:rgb(0%,39.599609%,17.999268%);fill-opacity:1;" d="M 321.066406 93.914063 C 315.625 97.214844 313.902344 103.519531 313.339844 105.875 L 335.984375 92.714844 C 332.972656 91.804688 326.734375 90.476563 321.066406 93.914063 "/>
<path style=" stroke:none;fill-rule:nonzero;fill:rgb(55.299377%,77.598572%,24.699402%);fill-opacity:1;" d="M 302.992188 128.566406 C 304.898438 129.832031 310.910156 133.335938 317.78125 131.488281 C 324.632813 129.652344 327.242188 124.445313 329.242188 121.464844 L 302.992188 128.566406 "/>
<path style=" stroke:none;fill-rule:nonzero;fill:rgb(0%,39.599609%,17.999268%);fill-opacity:1;" d="M 313.984375 118.664063 C 307.640625 120.507813 304.195313 126.355469 302.992188 128.566406 L 329.238281 121.464844 C 326.476563 119.742188 320.59375 116.738281 313.984375 118.664063 "/>
<g clip-path="url(#clip2)" clip-rule="nonzero">
<path style=" stroke:none;fill-rule:nonzero;fill:rgb(0%,39.599609%,17.999268%);fill-opacity:1;" d="M 325.917969 133.59375 C 327.753906 135.632813 333.753906 141.398438 342.226563 141.300781 C 350.898438 141.199219 355.644531 136.367188 358.449219 132.917969 L 325.917969 133.59375 "/>
</g>
<g clip-path="url(#clip3)" clip-rule="nonzero">
<path style=" stroke:none;fill-rule:nonzero;fill:rgb(55.299377%,77.598572%,24.699402%);fill-opacity:1;" d="M 341.546875 125.144531 C 333.683594 125.476563 327.949219 131.347656 325.917969 133.59375 L 358.449219 132.917969 C 355.757813 130.101563 349.738281 124.804688 341.546875 125.144531 "/>
</g>
<path style=" stroke:none;fill-rule:nonzero;fill:rgb(0%,39.599609%,17.999268%);fill-opacity:1;" d="M 301.46875 132.65625 C 301.300781 134.925781 301.386719 142.078125 306.4375 147.046875 C 311.390625 151.914063 317.644531 151.683594 320.996094 151.722656 L 301.46875 132.65625 "/>
<path style=" stroke:none;fill-rule:nonzero;fill:rgb(55.299377%,77.598572%,24.699402%);fill-opacity:1;" d="M 315.871094 137.230469 C 311.113281 132.679688 304 132.597656 301.46875 132.65625 L 320.996094 151.726563 C 321.136719 148.496094 320.839844 141.964844 315.871094 137.230469 "/>
<path style=" stroke:none;fill-rule:nonzero;fill:rgb(55.299377%,77.598572%,24.699402%);fill-opacity:1;" d="M 252.121094 156.738281 C 254.335938 156.050781 261.070313 153.375 263.71875 146.785156 C 266.304688 140.351563 264.1875 134.804688 262.855469 131.734375 L 252.121094 156.738281 "/>
<path style=" stroke:none;fill-rule:nonzero;fill:rgb(0%,39.599609%,17.999268%);fill-opacity:1;" d="M 251.078125 141.636719 C 248.550781 147.726563 251.113281 154.402344 252.121094 156.738281 L 262.855469 131.734375 C 259.738281 132.796875 253.714844 135.285156 251.078125 141.636719 "/>
<path style=" stroke:none;fill-rule:nonzero;fill:rgb(55.299377%,77.598572%,24.699402%);fill-opacity:1;" d="M 286.898438 166.589844 C 287.792969 164.292969 288.628906 156.726563 285.015625 151.546875 C 281.246094 146.128906 275.042969 144.554688 271.757813 143.988281 L 286.898438 166.589844 "/>
<path style=" stroke:none;fill-rule:nonzero;fill:rgb(0%,39.599609%,17.999268%);fill-opacity:1;" d="M 274.050781 159.617188 C 277.632813 164.535156 284.410156 166.152344 286.898438 166.589844 L 271.757813 143.988281 C 270.851563 146.957031 269.976563 154.023438 274.050781 159.617188 "/>
<path style=" stroke:none;fill-rule:nonzero;fill:rgb(55.299377%,77.598572%,24.699402%);fill-opacity:1;" d="M 258.8125 52.191406 C 261.453125 51.664063 269.21875 49.054688 272.910156 42.460938 C 276.394531 36.234375 274.890625 28.511719 273.671875 24.824219 L 258.8125 52.191406 "/>
<path style=" stroke:none;fill-rule:nonzero;fill:rgb(0%,39.599609%,17.999268%);fill-opacity:1;" d="M 259.214844 35.15625 C 255.617188 41.882813 257.980469 49.796875 258.8125 52.191406 L 273.671875 24.824219 C 269.933594 25.675781 262.953125 28.144531 259.214844 35.15625 "/>
<path style=" stroke:none;fill-rule:nonzero;fill:rgb(0%,39.599609%,17.999268%);fill-opacity:1;" d="M 129.558594 29.503906 C 130.90625 26.910156 133.035156 20.632813 130.863281 14.902344 C 128.402344 8.421875 122.339844 5.507813 119.117188 4.410156 L 129.558594 29.503906 "/>
<path style=" stroke:none;fill-rule:nonzero;fill:rgb(55.299377%,77.598572%,24.699402%);fill-opacity:1;" d="M 118.332031 20.140625 C 120.785156 25.5625 127.085938 28.5625 129.558594 29.503906 L 119.117188 4.410156 C 117.6875 7.769531 115.277344 13.382813 118.332031 20.140625 "/>
<path style=" stroke:none;fill-rule:nonzero;fill:rgb(0%,39.599609%,17.999268%);fill-opacity:1;" d="M 173.183594 56.144531 C 175.308594 53.933594 179.230469 48.28125 178.703125 41.929688 C 178.113281 34.746094 172.78125 30.117188 169.824219 28.105469 L 173.183594 56.144531 "/>
<path style=" stroke:none;fill-rule:nonzero;fill:rgb(55.299377%,77.598572%,24.699402%);fill-opacity:1;" d="M 164.4375 43.65625 C 165.332031 49.773438 170.945313 54.511719 173.183594 56.144531 L 169.824219 28.105469 C 167.390625 31.070313 163.320313 36.019531 164.4375 43.65625 "/>
<path style=" stroke:none;fill-rule:nonzero;fill:rgb(55.299377%,77.598572%,24.699402%);fill-opacity:1;" d="M 203.585938 48.144531 C 206.039063 46.578125 210.914063 42.167969 211.90625 36.175781 C 213.035156 29.386719 209.265625 23.808594 207.039063 21.28125 L 203.585938 48.144531 "/>
<path style=" stroke:none;fill-rule:nonzero;fill:rgb(0%,39.599609%,17.999268%);fill-opacity:1;" d="M 198.523438 34.527344 C 197.917969 40.398438 201.929688 46.125 203.585938 48.144531 L 207.042969 21.28125 C 204.132813 23.46875 199.273438 27.203125 198.523438 34.527344 "/>
<path style=" stroke:none;fill-rule:nonzero;fill:rgb(55.299377%,77.598572%,24.699402%);fill-opacity:1;" d="M 214.730469 60.574219 C 216.949219 59.683594 221.628906 56.792969 223.414063 52.128906 C 225.550781 46.550781 223.160156 41.453125 221.761719 39.070313 L 214.730469 60.574219 "/>
<path style=" stroke:none;fill-rule:nonzero;fill:rgb(0%,39.599609%,17.999268%);fill-opacity:1;" d="M 212.710938 48.863281 C 211.394531 53.523438 213.707031 58.695313 214.730469 60.574219 L 221.761719 39.070313 C 219.070313 40.398438 214.4375 42.738281 212.710938 48.863281 "/>
<path style=" stroke:none;fill-rule:nonzero;fill:rgb(55.299377%,77.598572%,24.699402%);fill-opacity:1;" d="M 221.769531 90.105469 C 224.226563 89.140625 229.472656 86.125 231.433594 81.015625 C 233.777344 74.902344 231.242188 69.246094 229.667969 66.632813 L 221.769531 90.105469 "/>
<path style=" stroke:none;fill-rule:nonzero;fill:rgb(0%,39.599609%,17.999268%);fill-opacity:1;" d="M 219.53125 77.378906 C 218.089844 82.488281 220.625 88.039063 221.769531 90.109375 L 229.667969 66.632813 C 226.695313 68.070313 221.421875 70.664063 219.53125 77.378906 "/>
<path style=" stroke:none;fill-rule:nonzero;fill:rgb(0%,39.599609%,17.999268%);fill-opacity:1;" d="M 132.261719 60.195313 C 133.222656 53.316406 131.636719 46.960938 127.785156 42.390625 C 122.933594 36.632813 114.410156 34.894531 110.683594 35.175781 L 132.261719 60.195313 "/>
<path style=" stroke:none;fill-rule:nonzero;fill:rgb(55.299377%,77.598572%,24.699402%);fill-opacity:1;" d="M 115.140625 52.792969 C 119.160156 57.195313 124.019531 59.691406 132.261719 60.195313 L 110.679688 35.175781 C 110.234375 38.757813 110.125 47.300781 115.140625 52.792969 "/>
<path style=" stroke:none;fill-rule:nonzero;fill:rgb(0%,39.599609%,17.999268%);fill-opacity:1;" d="M 153.488281 113.953125 C 156.363281 107.949219 157.253906 101.28125 154.980469 96.050781 C 151.574219 88.238281 144.238281 85.347656 140.753906 84.546875 L 153.488281 113.953125 "/>
<path style=" stroke:none;fill-rule:nonzero;fill:rgb(55.299377%,77.598572%,24.699402%);fill-opacity:1;" d="M 139.644531 101.980469 C 142.035156 107.144531 146.109375 111.144531 153.488281 113.953125 L 140.753906 84.546875 C 139.304688 87.683594 136.660156 95.535156 139.644531 101.980469 "/>
<path style=" stroke:none;fill-rule:nonzero;fill:rgb(0%,39.599609%,17.999268%);fill-opacity:1;" d="M 221.808594 33.242188 C 227.347656 31.03125 231.882813 27.523438 233.792969 22.59375 C 236.164063 16.476563 233.472656 8.789063 231.601563 6.023438 L 221.808594 33.242188 "/>
<path style=" stroke:none;fill-rule:nonzero;fill:rgb(55.299377%,77.598572%,24.699402%);fill-opacity:1;" d="M 219.484375 16.800781 C 217.566406 21.761719 218.53125 26.6875 221.808594 33.242188 L 231.601563 6.023438 C 228.1875 7.0625 221.851563 10.652344 219.484375 16.800781 "/>
<path style=" stroke:none;fill-rule:nonzero;fill:rgb(0%,39.599609%,17.999268%);fill-opacity:1;" d="M 173.589844 95.226563 C 177.210938 89.40625 179.511719 82.535156 178.082031 77.042969 C 175.683594 67.859375 167.8125 63.9375 164.445313 62.53125 L 173.589844 95.226563 "/>
<path style=" stroke:none;fill-rule:nonzero;fill:rgb(55.299377%,77.598572%,24.699402%);fill-opacity:1;" d="M 160.277344 81.855469 C 162.011719 87.644531 166.941406 92.277344 173.589844 95.226563 L 164.445313 62.53125 C 161.527344 66.683594 158.113281 74.636719 160.277344 81.855469 "/>
<path style=" stroke:none;fill-rule:nonzero;fill:rgb(55.299377%,77.598572%,24.699402%);fill-opacity:1;" d="M 242.371094 97.949219 C 249.621094 100.746094 258.097656 101.054688 264.175781 98.28125 C 273.941406 93.820313 277.039063 84.003906 278.453125 80.175781 L 242.371094 97.949219 "/>
<path style=" stroke:none;fill-rule:nonzero;fill:rgb(0%,39.599609%,17.999268%);fill-opacity:1;" d="M 255.351563 80.492188 C 249.035156 83.769531 244.730469 90.378906 242.371094 97.949219 L 278.453125 80.175781 C 273.144531 78.105469 263.796875 76.109375 255.351563 80.496094 "/>
<path style=" stroke:none;fill-rule:nonzero;fill:rgb(55.299377%,77.598572%,24.699402%);fill-opacity:1;" d="M 267.855469 139.941406 C 275.136719 141.921875 283.632813 141.445313 289.300781 138.304688 C 298.394531 133.261719 300.660156 123.984375 301.6875 120.101563 L 267.855469 139.941406 "/>
<path style=" stroke:none;fill-rule:nonzero;fill:rgb(0%,39.599609%,17.999268%);fill-opacity:1;" d="M 278.898438 122.4375 C 273.03125 126.058594 269.46875 132.300781 267.855469 139.941406 L 301.6875 120.105469 C 296.265625 118.652344 286.488281 117.761719 278.898438 122.441406 "/>
<path style=" stroke:none;fill-rule:nonzero;fill:rgb(55.299377%,77.598572%,24.699402%);fill-opacity:1;" d="M 317.4375 179.347656 C 319.433594 171.527344 318.304688 163.871094 314.921875 158.886719 C 309.609375 151.0625 300.445313 148.976563 296.597656 148.273438 L 317.4375 179.347656 "/>
<path style=" stroke:none;fill-rule:nonzero;fill:rgb(0%,39.599609%,17.999268%);fill-opacity:1;" d="M 299.785156 169.898438 C 303.511719 174.984375 309.984375 177.890625 317.4375 179.347656 L 296.597656 148.273438 C 294.96875 153.671875 294.503906 162.671875 299.785156 169.898438 "/>
<path style=" stroke:none;fill-rule:nonzero;fill:rgb(0%,39.599609%,17.999268%);fill-opacity:1;" d="M 149.402344 75.238281 C 152.53125 69.617188 153.503906 63.019531 151.585938 57.914063 C 148.839844 50.625 142.164063 46.976563 138.824219 45.78125 L 149.402344 75.238281 "/>
<path style=" stroke:none;fill-rule:nonzero;fill:rgb(55.299377%,77.598572%,24.699402%);fill-opacity:1;" d="M 136.605469 62.761719 C 138.652344 68.292969 142.257813 72 149.402344 75.238281 L 138.824219 45.78125 C 137.191406 48.8125 134.15625 56.140625 136.605469 62.761719 "/>
<path style=" stroke:none;fill-rule:nonzero;fill:rgb(55.299377%,77.598572%,24.699402%);fill-opacity:1;" d="M 70.757813 94.378906 C 70.980469 91.964844 71.214844 84.378906 66.710938 79.785156 C 61.921875 74.894531 55.625 74.261719 52.066406 74.792969 L 70.757813 94.378906 "/>
<path style=" stroke:none;fill-rule:nonzero;fill:rgb(0%,39.599609%,17.999268%);fill-opacity:1;" d="M 57.175781 89.84375 C 61.570313 94.09375 68.164063 94.65625 70.757813 94.378906 L 52.066406 74.792969 C 51.835938 77.851563 51.695313 84.53125 57.175781 89.84375 "/>
<path style=" stroke:none;fill-rule:nonzero;fill:rgb(0%,39.599609%,17.999268%);fill-opacity:1;" d="M 101.582031 79.199219 C 100.757813 76.8125 98.800781 70.074219 91.550781 66.328125 C 85.574219 63.238281 77.65625 64.84375 74.335938 66.546875 L 101.582031 79.199219 "/>
<path style=" stroke:none;fill-rule:nonzero;fill:rgb(55.299377%,77.598572%,24.699402%);fill-opacity:1;" d="M 85.570313 79.984375 C 91.480469 82.535156 99.117188 80.335938 101.582031 79.199219 L 74.335938 66.546875 C 75.441406 69.554688 78.171875 76.78125 85.570313 79.984375 "/>
<path style=" stroke:none;fill-rule:nonzero;fill:rgb(55.299377%,77.598572%,24.699402%);fill-opacity:1;" d="M 106.515625 53.308594 C 106.34375 50.339844 105.632813 42.484375 98.324219 35.542969 C 92.855469 30.339844 85.316406 30.441406 81.660156 31.175781 L 106.515625 53.308594 "/>
<path style=" stroke:none;fill-rule:nonzero;fill:rgb(0%,39.599609%,17.999268%);fill-opacity:1;" d="M 88.976563 47.65625 C 93.9375 52.03125 100.671875 53.71875 106.515625 53.308594 L 81.660156 31.175781 C 81.894531 34.367188 82.660156 42.089844 88.976563 47.65625 "/>
<path style=" stroke:none;fill-rule:nonzero;fill:rgb(0%,39.599609%,17.999268%);fill-opacity:1;" d="M 107.351563 97.292969 C 106.144531 95.0625 102.171875 87.949219 95.285156 86.140625 C 87.960938 84.210938 81.367188 86.984375 78.382813 89.203125 L 107.351563 97.292969 "/>
<path style=" stroke:none;fill-rule:nonzero;fill:rgb(55.299377%,77.598572%,24.699402%);fill-opacity:1;" d="M 91.839844 100.613281 C 98.417969 102.183594 105.101563 98.808594 107.351563 97.292969 L 78.382813 89.203125 C 79.960938 91.984375 83.621094 98.65625 91.839844 100.613281 "/>
<path style=" stroke:none;fill-rule:nonzero;fill:rgb(0%,39.599609%,17.999268%);fill-opacity:1;" d="M 134.8125 108.628906 C 134.460938 106.347656 132.164063 98.945313 127.324219 95.878906 C 121.992188 92.511719 115.328125 93.710938 112.34375 94.933594 L 134.8125 108.628906 "/>
<path style=" stroke:none;fill-rule:nonzero;fill:rgb(55.299377%,77.598572%,24.699402%);fill-opacity:1;" d="M 120.789063 108.265625 C 125.910156 111.085938 132.550781 109.605469 134.8125 108.628906 L 112.34375 94.933594 C 113.066406 97.601563 114.605469 104.847656 120.789063 108.265625 "/>
<path style=" stroke:none;fill-rule:nonzero;fill:rgb(55.299377%,77.598572%,24.699402%);fill-opacity:1;" d="M 77.292969 133.394531 C 78.402344 129.652344 78.914063 119.589844 75.015625 112.761719 C 68.933594 102.132813 58.675781 99.398438 55.113281 98.789063 L 77.292969 133.394531 "/>
<path style=" stroke:none;fill-rule:nonzero;fill:rgb(0%,39.599609%,17.999268%);fill-opacity:1;" d="M 58.421875 120.949219 C 63.425781 129.210938 73.980469 133.066406 77.296875 133.394531 L 55.109375 98.789063 C 54.117188 103.09375 53.257813 112.417969 58.421875 120.949219 "/>
<path style=" stroke:none;fill-rule:nonzero;fill:rgb(55.299377%,77.598572%,24.699402%);fill-opacity:1;" d="M 122.675781 129.207031 C 122.179688 125.320313 118.585938 115.484375 112.183594 110.664063 C 102.21875 103.152344 91.4375 104.625 87.890625 105.441406 L 122.675781 129.207031 "/>
<path style=" stroke:none;fill-rule:nonzero;fill:rgb(0%,39.599609%,17.999268%);fill-opacity:1;" d="M 99.710938 125.003906 C 107.945313 130.894531 119.742188 130.167969 122.675781 129.207031 L 87.890625 105.441406 C 88.453125 109.695313 91.757813 119.3125 99.710938 125.003906 "/>
<path style=" stroke:none;fill-rule:nonzero;fill:rgb(91.799927%,53.69873%,25.498962%);fill-opacity:1;" d="M 200.234375 157.78125 C 197.4375 164.414063 197.917969 170.171875 201.398438 170.457031 C 204.867188 170.742188 209.820313 165.464844 212.414063 158.863281 C 214.921875 152.46875 214.28125 147.1875 211.019531 146.875 C 207.761719 146.5625 202.96875 151.367188 200.234375 157.78125 "/>
<path style=" stroke:none;fill-rule:nonzero;fill:rgb(91.799927%,53.69873%,25.498962%);fill-opacity:1;" d="M 184.015625 109.785156 C 180.765625 115.085938 180.304688 120.035156 183.0625 120.683594 C 185.816406 121.351563 190.609375 117.460938 193.679688 112.164063 C 196.664063 107.03125 196.902344 102.453125 194.324219 101.804688 C 191.734375 101.152344 187.160156 104.664063 184.015625 109.785156 "/>
<path style=" stroke:none;fill-rule:nonzero;fill:rgb(91.799927%,53.69873%,25.498962%);fill-opacity:1;" d="M 152.554688 159.367188 C 156.183594 158.039063 154.746094 152.347656 149.472656 146.800781 C 144.363281 141.429688 137.574219 138.238281 134.179688 139.519531 C 130.78125 140.792969 131.878906 146.085938 136.753906 151.503906 C 141.796875 157.089844 148.929688 160.683594 152.554688 159.367188 "/>
<path style=" stroke:none;fill-rule:nonzero;fill:rgb(91.799927%,53.69873%,25.498962%);fill-opacity:1;" d="M 163.726563 151.53125 C 151.03125 133.894531 148.195313 127.828125 131.582031 113.863281 C 135.386719 120.820313 196.078125 200.660156 139.503906 158.925781 C 139.503906 158.925781 106.964844 136.609375 64.410156 138.933594 C 64.410156 138.933594 147.273438 147.617188 161.835938 202.882813 C 161.972656 203.386719 162.171875 206.242188 162.097656 207.148438 C 161.53125 214.574219 158.9375 220.8125 156.71875 224.921875 C 154.898438 228.292969 151.460938 232.519531 150.402344 233.617188 C 145.175781 239.066406 135.949219 241.148438 132.4375 242.785156 C 136.449219 245.617188 150.019531 243.222656 156.117188 242.796875 L 178.726563 243.742188 C 179.339844 243.703125 181.585938 243.851563 182.71875 243.851563 L 186.296875 233.769531 C 186.296875 233.769531 196.378906 231.726563 200.253906 231.058594 C 204.117188 230.382813 208.457031 229.925781 208.457031 229.925781 L 201.988281 244.21875 C 209.121094 245.160156 230.632813 247.519531 234.582031 245.101563 C 230.097656 243.277344 217.085938 241.894531 211.777344 234.394531 C 211.027344 233.644531 205.710938 215.460938 205.890625 209.03125 C 205.894531 208.804688 205.917969 208.21875 205.941406 208.128906 C 215.960938 141.9375 284.273438 118.003906 284.273438 118.003906 C 240.050781 127.925781 216.203125 162.300781 216.203125 162.300781 C 171.351563 217.816406 202.464844 136.152344 211.722656 126.511719 C 195.019531 139.304688 188.898438 158.226563 188.898438 158.226563 C 193.996094 104.527344 239.800781 99.390625 239.800781 99.390625 C 216.203125 98.742188 198.039063 118.269531 198.039063 118.269531 C 159.296875 159.6875 173.769531 100.359375 190.230469 91.894531 C 188.757813 92.671875 158.089844 105.535156 163.726563 151.53125 "/>
</g>
</svg>
