<?xml version="1.0" encoding="UTF-8"?>
<svg xmlns="http://www.w3.org/2000/svg" xmlns:xlink="http://www.w3.org/1999/xlink" width="76pt" height="59pt" viewBox="0 0 76 59" version="1.1">
<g id="surface1">
<path style=" stroke:none;fill-rule:evenodd;fill:rgb(8.999634%,53.69873%,46.699524%);fill-opacity:1;" d="M 25.222656 26.832031 L 25.21875 25.535156 L 22.953125 25.535156 C 22.953125 26.402344 22.898438 32.378906 22.980469 32.699219 L 25.414063 32.699219 C 25.53125 32.253906 25.429688 30.128906 25.441406 29.492188 C 25.460938 28.535156 25.722656 27.601563 26.625 27.457031 C 27.792969 27.269531 27.8125 28.457031 27.8125 29.449219 C 27.8125 30.082031 27.726563 32.234375 27.832031 32.695313 L 30.289063 32.699219 C 30.601563 31.324219 29.625 27.707031 31.503906 27.457031 C 32.671875 27.300781 32.691406 28.476563 32.691406 29.449219 C 32.691406 29.949219 32.65625 32.425781 32.714844 32.699219 L 35.144531 32.699219 C 35.246094 32.292969 35.167969 29.921875 35.167969 29.3125 C 35.167969 28.289063 35.222656 27.050781 34.738281 26.28125 C 34.046875 25.179688 32.15625 25.101563 30.980469 25.808594 L 30.300781 26.425781 C 30.265625 26.472656 30.25 26.5 30.207031 26.558594 L 30.09375 26.683594 C 29.773438 26.238281 29.796875 26.035156 29.1875 25.691406 C 28.296875 25.183594 26.972656 25.285156 26.113281 25.832031 C 25.617188 26.148438 25.570313 26.34375 25.222656 26.832031 "/>
<path style=" stroke:none;fill-rule:evenodd;fill:rgb(8.999634%,53.69873%,46.699524%);fill-opacity:1;" d="M 66.222656 29.371094 C 66.320313 30 65.820313 30.585938 65.515625 30.804688 C 64.742188 31.363281 63.453125 30.914063 63.765625 30 C 64.058594 29.144531 65.507813 29.339844 66.222656 29.371094 Z M 62.324219 27.398438 C 62.496094 27.355469 62.621094 27.265625 62.800781 27.195313 C 63.78125 26.8125 66.167969 26.414063 66.242188 28.078125 C 65 27.953125 63.761719 27.949219 62.722656 28.417969 C 61.863281 28.804688 61.191406 29.664063 61.445313 30.953125 C 61.648438 31.992188 62.488281 32.558594 63.652344 32.695313 C 65.628906 32.921875 66.117188 31.636719 66.367188 31.472656 L 66.433594 32.539063 L 68.710938 32.539063 C 68.539063 31.230469 68.574219 29.992188 68.574219 28.640625 C 68.574219 27.246094 68.320313 26.378906 67.457031 25.792969 C 66.238281 24.96875 63.953125 25.109375 62.492188 25.632813 C 62.21875 25.734375 62.296875 25.753906 62.308594 26.355469 C 62.320313 26.703125 62.324219 27.046875 62.324219 27.398438 "/>
<path style=" stroke:none;fill-rule:evenodd;fill:rgb(8.999634%,53.69873%,46.699524%);fill-opacity:1;" d="M 40.582031 29.371094 C 40.609375 30.046875 40.253906 30.523438 39.875 30.800781 C 39.140625 31.34375 37.78125 30.960938 38.117188 29.988281 C 38.414063 29.132813 39.933594 29.351563 40.582031 29.371094 Z M 36.636719 25.710938 L 36.6875 27.40625 C 37.519531 27.101563 37.773438 26.867188 38.96875 26.871094 C 39.878906 26.878906 40.570313 27.152344 40.585938 28.082031 C 38.539063 27.816406 35.257813 28.136719 35.792969 30.960938 C 36.148438 32.8125 39.007813 33.273438 40.25 32.03125 C 40.417969 31.863281 40.542969 31.628906 40.71875 31.449219 L 40.777344 32.523438 L 43.054688 32.542969 C 42.902344 31.375 42.921875 30.347656 42.921875 29.136719 C 42.921875 27.476563 42.882813 26.121094 41.1875 25.480469 C 40.742188 25.3125 40.210938 25.21875 39.683594 25.210938 C 38.390625 25.195313 37.730469 25.351563 36.636719 25.710938 "/>
<path style=" stroke:none;fill-rule:evenodd;fill:rgb(8.999634%,53.69873%,46.699524%);fill-opacity:1;" d="M 52.363281 29.371094 C 52.425781 30.011719 52.007813 30.550781 51.664063 30.800781 C 50.921875 31.339844 49.566406 30.953125 49.90625 29.988281 C 49.996094 29.722656 50.207031 29.574219 50.464844 29.46875 C 51.035156 29.246094 51.738281 29.351563 52.363281 29.371094 Z M 48.425781 25.710938 L 48.472656 27.40625 C 49.300781 27.105469 49.546875 26.867188 50.757813 26.871094 C 51.675781 26.878906 52.359375 27.152344 52.375 28.082031 C 50.335938 27.820313 47.050781 28.128906 47.585938 30.960938 C 47.925781 32.789063 50.769531 33.289063 52.035156 32.027344 C 52.199219 31.863281 52.332031 31.628906 52.503906 31.453125 L 52.570313 32.519531 L 54.847656 32.542969 C 54.6875 31.359375 54.710938 30.351563 54.710938 29.136719 C 54.710938 27.496094 54.699219 26.136719 52.976563 25.480469 C 51.527344 24.929688 49.757813 25.277344 48.425781 25.710938 "/>
<path style=" stroke:none;fill-rule:evenodd;fill:rgb(8.999634%,53.69873%,46.699524%);fill-opacity:1;" d="M 57.035156 32.535156 L 59.507813 32.542969 C 59.511719 29.746094 59.171875 30.519531 60.359375 28.472656 C 60.519531 28.195313 62.058594 25.554688 62.140625 25.328125 L 59.398438 25.328125 C 58.996094 26.160156 58.578125 27.25 58.273438 28.140625 C 58.191406 27.996094 58.097656 27.613281 58.03125 27.414063 L 57.136719 25.347656 L 54.386719 25.328125 C 54.621094 25.945313 57.011719 29.699219 57.035156 30.074219 C 57.085938 30.816406 57.035156 31.769531 57.035156 32.535156 "/>
<path style=" stroke:none;fill-rule:evenodd;fill:rgb(8.999634%,53.69873%,46.699524%);fill-opacity:1;" d="M 44.171875 32.535156 L 44.347656 32.542969 L 46.496094 32.539063 L 46.671875 32.539063 L 46.671875 22.238281 L 44.171875 22.230469 L 44.171875 32.535156 "/>
<path style=" stroke:none;fill-rule:evenodd;fill:rgb(95.298767%,43.499756%,12.89978%);fill-opacity:1;" d="M 5.398438 29.410156 C 5.929688 28.347656 7.414063 27.300781 8.53125 26.804688 C 12.910156 24.851563 18.136719 24.730469 19.453125 20.492188 C 19.199219 20.632813 18.75 21.125 17.757813 21.640625 C 14.421875 23.375 8.332031 22.960938 6.050781 27.234375 C 5.710938 27.867188 5.519531 28.382813 5.402344 29.09375 C 5.394531 29.132813 5.382813 29.21875 5.378906 29.246094 C 5.375 29.316406 5.375 29.199219 5.378906 29.316406 C 5.386719 29.410156 5.382813 29.371094 5.398438 29.410156 "/>
<path style=" stroke:none;fill-rule:evenodd;fill:rgb(95.298767%,43.499756%,12.89978%);fill-opacity:1;" d="M 5.417969 30.996094 C 5.597656 30.726563 6.707031 30.035156 7.082031 29.835938 C 9.792969 28.421875 13.828125 28.46875 16.675781 26.519531 C 17.945313 25.65625 19.355469 24.050781 19.46875 22.09375 C 18.949219 22.65625 19.128906 22.746094 18.101563 23.597656 C 14.953125 26.214844 9.347656 25.957031 6.402344 29.109375 C 6.105469 29.429688 5.472656 30.402344 5.417969 30.996094 "/>
<path style=" stroke:none;fill-rule:evenodd;fill:rgb(8.999634%,53.69873%,46.699524%);fill-opacity:1;" d="M 21.683594 32.695313 L 21.707031 25.542969 C 21.328125 25.523438 19.394531 25.496094 19.132813 25.5625 C 19.132813 27.1875 19.132813 28.8125 19.132813 30.433594 L 19.132813 32.226563 C 19.128906 32.460938 19.0625 32.667969 19.246094 32.703125 C 19.546875 32.753906 21.300781 32.71875 21.683594 32.695313 "/>
<path style=" stroke:none;fill-rule:evenodd;fill:rgb(8.999634%,53.69873%,46.699524%);fill-opacity:1;" d="M 14.363281 28.40625 L 14.363281 32.695313 C 15.136719 32.738281 16.015625 32.699219 16.78125 32.699219 C 16.972656 32.699219 17.167969 32.699219 17.363281 32.699219 C 17.636719 32.703125 17.777344 32.777344 17.796875 32.542969 L 17.78125 26.476563 C 16.429688 27.554688 16.21875 27.714844 14.363281 28.40625 "/>
<path style=" stroke:none;fill-rule:evenodd;fill:rgb(8.999634%,53.69873%,46.699524%);fill-opacity:1;" d="M 7.085938 25.027344 L 7.84375 24.410156 C 8.472656 23.929688 9.308594 23.546875 10.054688 23.261719 C 10.328125 23.15625 10.503906 23.175781 10.503906 22.949219 L 10.503906 19.128906 L 7.085938 19.128906 L 7.085938 25.027344 "/>
<path style=" stroke:none;fill-rule:evenodd;fill:rgb(8.999634%,53.69873%,46.699524%);fill-opacity:1;" d="M 7.09375 30.527344 C 7.074219 30.863281 7.050781 32.453125 7.113281 32.699219 L 10.484375 32.699219 L 10.503906 29.40625 C 9.914063 29.542969 9.28125 29.691406 8.730469 29.871094 C 7.929688 30.132813 7.707031 30.292969 7.09375 30.527344 "/>
<path style=" stroke:none;fill-rule:evenodd;fill:rgb(8.999634%,53.69873%,46.699524%);fill-opacity:1;" d="M 14.363281 22.0625 C 15.15625 21.980469 17.261719 21.261719 17.789063 20.914063 L 17.789063 19.15625 C 17.496094 19.078125 14.816406 19.105469 14.363281 19.136719 L 14.363281 22.0625 "/>
<path style=" stroke:none;fill-rule:nonzero;fill:rgb(8.999634%,53.69873%,46.699524%);fill-opacity:1;" d="M 8.570313 39.269531 L 8.570313 38.152344 L 7.535156 38.152344 L 7.535156 39.269531 L 7.074219 39.269531 L 7.074219 36.789063 L 7.535156 36.789063 L 7.535156 37.761719 L 8.570313 37.761719 L 8.570313 36.789063 L 9.027344 36.789063 L 9.027344 39.269531 Z M 11.601563 37.179688 L 11.601563 37.761719 L 12.460938 37.761719 L 12.460938 38.132813 L 11.601563 38.132813 L 11.601563 38.875 L 12.78125 38.875 L 12.78125 39.269531 L 11.136719 39.269531 L 11.136719 36.789063 L 12.800781 36.789063 L 12.800781 37.179688 Z M 16.253906 39.269531 L 15.558594 38.242188 C 15.488281 38.242188 15.390625 38.238281 15.265625 38.230469 L 15.265625 39.269531 L 14.785156 39.269531 L 14.785156 36.789063 C 14.8125 36.789063 14.910156 36.785156 15.085938 36.777344 C 15.261719 36.765625 15.398438 36.761719 15.507813 36.761719 C 16.167969 36.761719 16.5 37.007813 16.5 37.496094 C 16.5 37.640625 16.453125 37.773438 16.359375 37.894531 C 16.269531 38.015625 16.15625 38.101563 16.015625 38.152344 L 16.785156 39.269531 Z M 15.265625 37.171875 L 15.265625 37.859375 C 15.351563 37.867188 15.414063 37.871094 15.460938 37.871094 C 15.652344 37.871094 15.792969 37.84375 15.882813 37.792969 C 15.972656 37.738281 16.019531 37.640625 16.019531 37.488281 C 16.019531 37.367188 15.96875 37.28125 15.875 37.234375 C 15.777344 37.183594 15.628906 37.160156 15.421875 37.160156 C 15.371094 37.160156 15.320313 37.164063 15.265625 37.171875 Z M 19.382813 39.269531 L 18.585938 39.269531 L 18.585938 36.789063 C 18.9375 36.773438 19.179688 36.765625 19.324219 36.765625 C 19.59375 36.765625 19.804688 36.820313 19.957031 36.929688 C 20.109375 37.042969 20.183594 37.199219 20.183594 37.402344 C 20.183594 37.597656 20.074219 37.753906 19.855469 37.867188 C 20.179688 37.976563 20.34375 38.195313 20.34375 38.53125 C 20.34375 38.757813 20.253906 38.9375 20.074219 39.070313 C 19.894531 39.203125 19.664063 39.269531 19.382813 39.269531 Z M 19.046875 37.140625 L 19.046875 37.734375 C 19.117188 37.738281 19.191406 37.742188 19.269531 37.742188 C 19.570313 37.742188 19.722656 37.636719 19.722656 37.417969 C 19.722656 37.230469 19.585938 37.132813 19.3125 37.132813 C 19.238281 37.132813 19.152344 37.136719 19.046875 37.140625 Z M 19.046875 38.078125 L 19.046875 38.898438 C 19.140625 38.90625 19.214844 38.910156 19.273438 38.910156 C 19.480469 38.910156 19.628906 38.878906 19.722656 38.8125 C 19.816406 38.742188 19.863281 38.632813 19.863281 38.480469 C 19.863281 38.339844 19.820313 38.234375 19.734375 38.171875 C 19.648438 38.105469 19.496094 38.074219 19.28125 38.074219 C 19.234375 38.074219 19.15625 38.078125 19.046875 38.078125 Z M 23.847656 39.269531 L 23.65625 38.765625 L 22.765625 38.765625 L 22.585938 39.269531 L 22.070313 39.269531 L 23.109375 36.753906 L 23.3125 36.753906 L 24.355469 39.269531 Z M 23.210938 37.511719 L 22.898438 38.429688 L 23.523438 38.429688 Z M 26.210938 39.269531 L 26.210938 36.789063 L 26.671875 36.789063 L 26.671875 38.875 L 27.847656 38.875 L 27.847656 39.269531 Z M 34.449219 39.269531 L 34.449219 38.152344 L 33.414063 38.152344 L 33.414063 39.269531 L 32.953125 39.269531 L 32.953125 36.789063 L 33.414063 36.789063 L 33.414063 37.761719 L 34.449219 37.761719 L 34.449219 36.789063 L 34.90625 36.789063 L 34.90625 39.269531 Z M 37.480469 37.179688 L 37.480469 37.761719 L 38.339844 37.761719 L 38.339844 38.132813 L 37.480469 38.132813 L 37.480469 38.875 L 38.660156 38.875 L 38.660156 39.269531 L 37.015625 39.269531 L 37.015625 36.789063 L 38.679688 36.789063 L 38.679688 37.179688 Z M 42.183594 39.269531 L 41.992188 38.765625 L 41.101563 38.765625 L 40.921875 39.269531 L 40.40625 39.269531 L 41.445313 36.753906 L 41.648438 36.753906 L 42.695313 39.269531 Z M 41.546875 37.511719 L 41.234375 38.429688 L 41.859375 38.429688 Z M 44.546875 39.269531 L 44.546875 36.789063 L 45.007813 36.789063 L 45.007813 38.875 L 46.183594 38.875 L 46.183594 39.269531 Z M 48.925781 37.179688 L 48.925781 39.269531 L 48.460938 39.269531 L 48.460938 37.179688 L 47.632813 37.179688 L 47.632813 36.789063 L 49.789063 36.789063 L 49.789063 37.179688 Z M 53.167969 39.269531 L 53.167969 38.152344 L 52.128906 38.152344 L 52.128906 39.269531 L 51.667969 39.269531 L 51.667969 36.789063 L 52.128906 36.789063 L 52.128906 37.761719 L 53.167969 37.761719 L 53.167969 36.789063 L 53.621094 36.789063 L 53.621094 39.269531 Z M 57.519531 36.921875 L 57.328125 37.285156 C 57.222656 37.183594 57.058594 37.136719 56.832031 37.136719 C 56.613281 37.136719 56.433594 37.222656 56.296875 37.398438 C 56.160156 37.570313 56.089844 37.789063 56.089844 38.054688 C 56.089844 38.320313 56.152344 38.53125 56.28125 38.683594 C 56.410156 38.839844 56.582031 38.917969 56.796875 38.917969 C 57.042969 38.917969 57.234375 38.835938 57.371094 38.667969 L 57.585938 39.023438 C 57.398438 39.214844 57.121094 39.308594 56.757813 39.308594 C 56.394531 39.308594 56.113281 39.195313 55.910156 38.96875 C 55.710938 38.738281 55.609375 38.429688 55.609375 38.035156 C 55.609375 37.667969 55.71875 37.363281 55.945313 37.117188 C 56.167969 36.867188 56.453125 36.746094 56.800781 36.746094 C 57.101563 36.746094 57.339844 36.804688 57.519531 36.921875 Z M 61.054688 39.269531 L 60.867188 38.765625 L 59.972656 38.765625 L 59.792969 39.269531 L 59.28125 39.269531 L 60.316406 36.753906 L 60.519531 36.753906 L 61.566406 39.269531 Z M 60.417969 37.511719 L 60.105469 38.429688 L 60.730469 38.429688 Z M 64.886719 39.269531 L 64.191406 38.242188 C 64.121094 38.242188 64.023438 38.238281 63.898438 38.230469 L 63.898438 39.269531 L 63.417969 39.269531 L 63.417969 36.789063 C 63.445313 36.789063 63.542969 36.785156 63.71875 36.777344 C 63.894531 36.765625 64.035156 36.761719 64.140625 36.761719 C 64.800781 36.761719 65.132813 37.007813 65.132813 37.496094 C 65.132813 37.640625 65.085938 37.773438 64.996094 37.894531 C 64.90625 38.015625 64.789063 38.101563 64.652344 38.152344 L 65.417969 39.269531 Z M 63.898438 37.171875 L 63.898438 37.859375 C 63.984375 37.867188 64.050781 37.871094 64.09375 37.871094 C 64.289063 37.871094 64.429688 37.84375 64.519531 37.792969 C 64.609375 37.738281 64.652344 37.640625 64.652344 37.488281 C 64.652344 37.367188 64.605469 37.28125 64.507813 37.234375 C 64.414063 37.183594 64.261719 37.160156 64.054688 37.160156 C 64.003906 37.160156 63.953125 37.164063 63.898438 37.171875 Z M 67.679688 37.179688 L 67.679688 37.761719 L 68.539063 37.761719 L 68.539063 38.132813 L 67.679688 38.132813 L 67.679688 38.875 L 68.859375 38.875 L 68.859375 39.269531 L 67.21875 39.269531 L 67.21875 36.789063 L 68.882813 36.789063 L 68.882813 37.179688 L 67.679688 37.179688 "/>
<path style=" stroke:none;fill-rule:evenodd;fill:rgb(95.298767%,43.499756%,12.89978%);fill-opacity:1;" d="M 7.074219 34.292969 L 68.464844 34.292969 L 68.464844 34.71875 L 7.074219 34.71875 L 7.074219 34.292969 "/>
<path style=" stroke:none;fill-rule:evenodd;fill:rgb(8.999634%,53.69873%,46.699524%);fill-opacity:1;" d="M 69.398438 24.074219 C 69.59375 24.074219 69.785156 24.125 69.972656 24.226563 C 70.160156 24.328125 70.308594 24.472656 70.410156 24.660156 C 70.515625 24.847656 70.570313 25.042969 70.570313 25.25 C 70.570313 25.449219 70.519531 25.644531 70.414063 25.832031 C 70.3125 26.019531 70.167969 26.164063 69.980469 26.265625 C 69.792969 26.371094 69.601563 26.421875 69.398438 26.421875 C 69.195313 26.421875 69 26.371094 68.8125 26.265625 C 68.628906 26.164063 68.480469 26.019531 68.378906 25.832031 C 68.277344 25.644531 68.222656 25.449219 68.222656 25.25 C 68.222656 25.042969 68.277344 24.847656 68.382813 24.660156 C 68.484375 24.472656 68.632813 24.328125 68.820313 24.226563 C 69.007813 24.125 69.199219 24.074219 69.398438 24.074219 Z M 69.398438 24.269531 C 69.230469 24.269531 69.070313 24.3125 68.914063 24.394531 C 68.761719 24.480469 68.636719 24.601563 68.550781 24.757813 C 68.460938 24.914063 68.417969 25.078125 68.417969 25.25 C 68.417969 25.417969 68.460938 25.578125 68.546875 25.734375 C 68.632813 25.890625 68.753906 26.011719 68.910156 26.097656 C 69.066406 26.183594 69.226563 26.226563 69.398438 26.226563 C 69.566406 26.226563 69.726563 26.183594 69.882813 26.097656 C 70.039063 26.011719 70.160156 25.890625 70.246094 25.734375 C 70.332031 25.578125 70.375 25.417969 70.375 25.25 C 70.375 25.078125 70.332031 24.914063 70.242188 24.757813 C 70.15625 24.601563 70.035156 24.480469 69.878906 24.394531 C 69.71875 24.3125 69.558594 24.269531 69.398438 24.269531 Z M 68.882813 25.894531 L 68.882813 24.636719 L 69.316406 24.636719 C 69.464844 24.636719 69.574219 24.648438 69.636719 24.671875 C 69.707031 24.695313 69.757813 24.734375 69.796875 24.792969 C 69.835938 24.851563 69.855469 24.910156 69.855469 24.976563 C 69.855469 25.070313 69.824219 25.148438 69.757813 25.21875 C 69.691406 25.285156 69.605469 25.324219 69.496094 25.332031 C 69.539063 25.351563 69.574219 25.371094 69.601563 25.398438 C 69.652344 25.449219 69.714844 25.53125 69.789063 25.648438 L 69.941406 25.894531 L 69.695313 25.894531 L 69.582031 25.699219 C 69.496094 25.539063 69.421875 25.441406 69.367188 25.402344 C 69.332031 25.375 69.277344 25.359375 69.207031 25.359375 L 69.085938 25.359375 L 69.085938 25.894531 Z M 69.085938 25.1875 L 69.332031 25.1875 C 69.453125 25.1875 69.53125 25.167969 69.574219 25.132813 C 69.617188 25.097656 69.640625 25.050781 69.640625 24.996094 C 69.640625 24.957031 69.628906 24.921875 69.609375 24.894531 C 69.589844 24.863281 69.558594 24.84375 69.523438 24.828125 C 69.484375 24.816406 69.417969 24.808594 69.316406 24.808594 L 69.085938 24.808594 L 69.085938 25.1875 "/>
</g>
</svg>
